<mxfile host="app.diagrams.net" agent="Mozilla/5.0 (Windows NT 10.0; Win64; x64) AppleWebKit/537.36 (KHTML, like Gecko) Chrome/136.0.0.0 Safari/537.36" version="27.0.2">
  <diagram name="Page-1" id="8qbxvnG0z3gAlXOx1S5L">
    <mxGraphModel dx="2101" dy="660" grid="1" gridSize="10" guides="1" tooltips="1" connect="1" arrows="1" fold="1" page="1" pageScale="1" pageWidth="850" pageHeight="1100" math="0" shadow="0">
      <root>
        <mxCell id="0" />
        <mxCell id="1" parent="0" />
        <mxCell id="e5wt8jNrd1LsYdpajZMm-5" style="edgeStyle=orthogonalEdgeStyle;rounded=0;orthogonalLoop=1;jettySize=auto;html=1;entryX=0.5;entryY=0;entryDx=0;entryDy=0;" edge="1" parent="1" source="e5wt8jNrd1LsYdpajZMm-1" target="e5wt8jNrd1LsYdpajZMm-2">
          <mxGeometry relative="1" as="geometry" />
        </mxCell>
        <mxCell id="e5wt8jNrd1LsYdpajZMm-6" style="edgeStyle=orthogonalEdgeStyle;rounded=0;orthogonalLoop=1;jettySize=auto;html=1;entryX=0.5;entryY=0;entryDx=0;entryDy=0;" edge="1" parent="1" source="e5wt8jNrd1LsYdpajZMm-1" target="e5wt8jNrd1LsYdpajZMm-3">
          <mxGeometry relative="1" as="geometry" />
        </mxCell>
        <mxCell id="e5wt8jNrd1LsYdpajZMm-7" style="edgeStyle=orthogonalEdgeStyle;rounded=0;orthogonalLoop=1;jettySize=auto;html=1;entryX=0.5;entryY=0;entryDx=0;entryDy=0;" edge="1" parent="1" source="e5wt8jNrd1LsYdpajZMm-1" target="e5wt8jNrd1LsYdpajZMm-4">
          <mxGeometry relative="1" as="geometry" />
        </mxCell>
        <mxCell id="e5wt8jNrd1LsYdpajZMm-1" value="&lt;b&gt;HDFC&lt;/b&gt;" style="rounded=1;whiteSpace=wrap;html=1;fillColor=#dae8fc;gradientColor=#7ea6e0;strokeColor=#6c8ebf;" vertex="1" parent="1">
          <mxGeometry x="320" y="30" width="120" height="60" as="geometry" />
        </mxCell>
        <mxCell id="e5wt8jNrd1LsYdpajZMm-13" style="edgeStyle=orthogonalEdgeStyle;rounded=0;orthogonalLoop=1;jettySize=auto;html=1;entryX=0.5;entryY=0;entryDx=0;entryDy=0;" edge="1" parent="1" source="e5wt8jNrd1LsYdpajZMm-2" target="e5wt8jNrd1LsYdpajZMm-10">
          <mxGeometry relative="1" as="geometry" />
        </mxCell>
        <mxCell id="e5wt8jNrd1LsYdpajZMm-14" style="edgeStyle=orthogonalEdgeStyle;rounded=0;orthogonalLoop=1;jettySize=auto;html=1;entryX=0.5;entryY=0;entryDx=0;entryDy=0;" edge="1" parent="1" source="e5wt8jNrd1LsYdpajZMm-2" target="e5wt8jNrd1LsYdpajZMm-11">
          <mxGeometry relative="1" as="geometry" />
        </mxCell>
        <mxCell id="e5wt8jNrd1LsYdpajZMm-2" value="Banking" style="rounded=0;whiteSpace=wrap;html=1;fillColor=#ffcd28;gradientColor=#ffa500;strokeColor=#d79b00;" vertex="1" parent="1">
          <mxGeometry x="110" y="160" width="120" height="60" as="geometry" />
        </mxCell>
        <mxCell id="e5wt8jNrd1LsYdpajZMm-3" value="Stock" style="rounded=0;whiteSpace=wrap;html=1;fillColor=#f8cecc;gradientColor=#ea6b66;strokeColor=#b85450;" vertex="1" parent="1">
          <mxGeometry x="320" y="160" width="120" height="60" as="geometry" />
        </mxCell>
        <mxCell id="e5wt8jNrd1LsYdpajZMm-4" value="Loan" style="rounded=0;whiteSpace=wrap;html=1;fillColor=#d5e8d4;gradientColor=#97d077;strokeColor=#82b366;" vertex="1" parent="1">
          <mxGeometry x="530" y="160" width="120" height="60" as="geometry" />
        </mxCell>
        <mxCell id="e5wt8jNrd1LsYdpajZMm-9" value="&lt;b&gt;Savings&lt;/b&gt;" style="rounded=1;whiteSpace=wrap;html=1;fillColor=#dae8fc;gradientColor=#7ea6e0;strokeColor=#6c8ebf;" vertex="1" parent="1">
          <mxGeometry x="-60" y="300" width="120" height="60" as="geometry" />
        </mxCell>
        <mxCell id="e5wt8jNrd1LsYdpajZMm-10" value="&lt;b&gt;Current&lt;/b&gt;" style="rounded=1;whiteSpace=wrap;html=1;fillColor=#d5e8d4;gradientColor=#97d077;strokeColor=#82b366;" vertex="1" parent="1">
          <mxGeometry x="110" y="300" width="120" height="60" as="geometry" />
        </mxCell>
        <mxCell id="e5wt8jNrd1LsYdpajZMm-11" value="&lt;b&gt;SeniorCitizen&lt;/b&gt;" style="rounded=1;whiteSpace=wrap;html=1;fillColor=#e6d0de;gradientColor=#d5739d;strokeColor=#996185;" vertex="1" parent="1">
          <mxGeometry x="250" y="300" width="120" height="60" as="geometry" />
        </mxCell>
        <mxCell id="e5wt8jNrd1LsYdpajZMm-12" style="edgeStyle=orthogonalEdgeStyle;rounded=0;orthogonalLoop=1;jettySize=auto;html=1;entryX=0.401;entryY=0.012;entryDx=0;entryDy=0;entryPerimeter=0;" edge="1" parent="1" source="e5wt8jNrd1LsYdpajZMm-2" target="e5wt8jNrd1LsYdpajZMm-9">
          <mxGeometry relative="1" as="geometry" />
        </mxCell>
      </root>
    </mxGraphModel>
  </diagram>
</mxfile>
